<?xml version="1.0" encoding="UTF-8"?>
<svg id="Layer_2" data-name="Layer 2" xmlns="http://www.w3.org/2000/svg" viewBox="0 0 255.75 149.79">
  <defs>
    <style>
      .cls-1 {
        fill: #fff;
        stroke: #231f20;
        stroke-miterlimit: 10;
        stroke-width: .19px;
      }
    </style>
  </defs>
  <g id="Layer_1-2" data-name="Layer 1">
    <path class="cls-1" d="M255.65,73.65c0-9.66-6.44-17.79-15.26-20.39L151.62,2.02c-6.86-3.96-15.62-1.61-19.58,5.25l-1.35,2.33c-3.96,6.86-1.61,15.62,5.25,19.58l40.22,23.22H21.35C9.61,52.39.09,61.91.09,73.65s9.52,21.26,21.26,21.26h156.61l-43.93,25.36c-6.86,3.96-9.2,12.72-5.25,19.58l1.55,2.68c3.96,6.86,12.72,9.2,19.58,5.25l94.87-54.77c1.94-1.12,3.5-2.63,4.68-4.37,3.82-3.84,6.18-9.14,6.18-14.98Z"/>
  </g>
</svg>